<svg id="Laag_1" data-name="Laag 1" xmlns="http://www.w3.org/2000/svg" xmlns:xlink="http://www.w3.org/1999/xlink" viewBox="0 0 368.31 255.57"><defs><style>.cls-1{fill:none;}.cls-2{clip-path:url(#clip-path);}.cls-3{fill:#1d1d1b;}</style><clipPath id="clip-path" transform="translate(-498.84 -256.27)"><rect class="cls-1" x="498.84" y="256.23" width="368.31" height="255.55"/></clipPath></defs><g class="cls-2"><path class="cls-3" d="M845.12,383.74v-31.4a15.27,15.27,0,0,0-.17-2.78c-1.21-6.94-7.46-12.14-14.23-11.62-7.46.69-12.83,6.24-12.83,13.7v64a23.85,23.85,0,0,0,.34,3.47,13.67,13.67,0,0,0,26.89-3.47c.18-10.58,0-21.16,0-31.92m-27.23,64.71V500.5c0,4.33-.7,5.37-4.86,6.94-3.47,1.21-7.11,2.6-10.58,3.81-4.34,1.56-6.77,0-6.77-4.68V378c0-9.54-.35-18.91.17-28.45,1-18.21,14.92-31.92,32.79-33.48,17.52-1.56,33.49,10.24,37.65,27.76a31.44,31.44,0,0,1,.87,8V415c0,18.56-12,33-30,36.08a29.91,29.91,0,0,1-17-1.56,9.24,9.24,0,0,0-2.25-1" transform="translate(-498.84 -256.27)"/></g><g class="cls-2"><path class="cls-3" d="M548.63,366.56a11.49,11.49,0,0,0-1.9.7c-5.56,2.43-11.11,4.68-16.83,7.11-5.73,2.6-8.68,6.94-8.68,13.19,0,8.84-.17,17.87,0,26.71a15.55,15.55,0,0,0,1.39,6.25A13.25,13.25,0,0,0,537.88,428a13.78,13.78,0,0,0,10.75-13.53V366.56m22,1.57v46.14c0,19.26-14.75,35.22-33.31,36.09-20.13.87-36.61-13-38-32.79a265.53,265.53,0,0,1,0-33.14c.87-14.57,8.85-24.8,22.21-30.53,8.15-3.47,16.31-6.94,24.46-10.24,1.91-.86,2.78-1.9,2.78-4.16-.18-5.55,0-11.1,0-16.65,0-8-6.59-12.5-14-9.89-5.21,1.91-10.41,3.81-15.44,5.55-3.47,1.21-5.38.52-6.6-2.95-1.39-3.64-2.6-7.11-4-10.76-1.21-3.29-.34-5.2,2.78-6.42,7.11-2.77,14-5.89,21.34-8a29.68,29.68,0,0,1,36.95,21,30.64,30.64,0,0,1,1,8c-.17,16.13-.17,32.44-.17,48.75" transform="translate(-498.84 -256.27)"/></g><g class="cls-2"><path class="cls-3" d="M768.44,390.68v53.26c0,20.3-16.83,36.61-36.78,35.91-19.6-.69-34.52-16.13-34.69-36.26-.18-30.7,0-61.41,0-92.29,0-3.3,1-4.69,4.16-5.9,3.64-1.39,7.29-2.6,10.93-4,4.68-1.74,6.94-.17,6.94,4.68v97.5a13.16,13.16,0,0,0,7.63,12.49,13.51,13.51,0,0,0,14.57-1.38,13.18,13.18,0,0,0,5.21-11.11V342.8c0-5.55.35-6.08,5.55-8,3.47-1.22,6.94-2.61,10.41-3.82,3.64-1.39,6.07.35,6.07,4.34v55.34" transform="translate(-498.84 -256.27)"/></g><g class="cls-2"><path class="cls-3" d="M647.35,350.43V281c0-6.25,2.95-10.59,8.85-12.67,10.41-3.82,21-7.63,31.4-11.45,4-1.39,5.72-.69,7.11,3.3,1.39,3.81,2.78,7.46,4,11.27,1,2.95.17,4.86-2.78,5.9-7.46,2.78-14.74,5.38-22.2,8.16-3.47,1.21-4.34,2.42-4.34,6.24V414.27c0,4.51-.69,5.38-4.86,6.94-3.64,1.39-7.11,2.61-10.75,4-4,1.39-6.42-.17-6.42-4.51V350.43" transform="translate(-498.84 -256.27)"/></g><g class="cls-2"><path class="cls-3" d="M598.08,358.41V286.59c0-4,.69-5,4.51-6.42,3.47-1.22,7.11-2.43,10.58-4,4.17-1.91,7.11.69,6.94,4.86-.17,44.58,0,89.34,0,133.93v10.58c0,2.78-1,4.34-3.64,5.2-4,1.57-8.16,2.95-12.15,4.52-3.81,1.38-6.07-.35-6.07-4.34-.17-24.12-.17-48.4-.17-72.52" transform="translate(-498.84 -256.27)"/></g></svg>