<svg xmlns="http://www.w3.org/2000/svg" xmlns:xlink="http://www.w3.org/1999/xlink" id="Ebene_1" x="0px" y="0px" width="480px" height="480px" viewBox="0 0 480 480" style="enable-background:new 0 0 480 480;" xml:space="preserve">
<style type="text/css">
	.st0{clip-path:url(#SVGID_00000143578080374069722110000004616800277624955544_);fill:#1D1D1B;}
</style>
<g>
	<defs>
		<rect id="SVGID_1_" x="133.8" y="166.4" width="212.3" height="147.3"></rect>
	</defs>
	<clipPath id="SVGID_00000127039749922485778230000017111238125603947683_">
		<use xlink:href="#SVGID_1_" style="overflow:visible;"></use>
	</clipPath>
	<path style="clip-path:url(#SVGID_00000127039749922485778230000017111238125603947683_);fill:#1D1D1B;" d="M333.4,239.9   c0-6,0-12.1,0-18.1c0-0.5,0-1.1-0.1-1.6c-0.7-4-4.3-7-8.2-6.7c-4.3,0.4-7.4,3.6-7.4,7.9c0,12.3,0,24.6,0,36.9c0,0.7,0.1,1.3,0.2,2   c1,3.9,4.7,6.3,8.7,5.8c3.8-0.5,6.8-3.8,6.8-7.8C333.5,252.2,333.4,246.1,333.4,239.9 M317.7,277.2v1.8c0,9.4,0,18.8,0,28.2   c0,2.5-0.4,3.1-2.8,4c-2,0.7-4.1,1.5-6.1,2.2c-2.5,0.9-3.9,0-3.9-2.7c0-24.7,0-49.4,0-74.1c0-5.5-0.2-10.9,0.1-16.4   c0.6-10.5,8.6-18.4,18.9-19.3c10.1-0.9,19.3,5.9,21.7,16c0.4,1.5,0.5,3.1,0.5,4.6c0,12.1,0,24.3,0,36.4c0,10.7-6.9,19-17.3,20.8   c-3.3,0.6-6.7,0.4-9.8-0.9C318.7,277.6,318.3,277.4,317.7,277.2"></path>
	<path style="clip-path:url(#SVGID_00000127039749922485778230000017111238125603947683_);fill:#1D1D1B;" d="M162.5,230   c-0.5,0.2-0.8,0.2-1.1,0.4c-3.2,1.4-6.4,2.7-9.7,4.1c-3.3,1.5-5,4-5,7.6c0,5.1-0.1,10.3,0,15.4c0,1.2,0.3,2.5,0.8,3.6   c1.5,3.4,5.3,5.2,8.8,4.3c3.6-0.8,6.2-4,6.2-7.8c0-8.9,0-17.8,0-26.8C162.5,230.6,162.5,230.4,162.5,230 M175.2,230.9   c0,8.9,0,17.8,0,26.6c0,11.1-8.5,20.3-19.2,20.8c-11.6,0.5-21.1-7.5-21.9-18.9c-0.4-6.4-0.4-12.8,0-19.1   c0.5-8.4,5.1-14.3,12.8-17.6c4.7-2,9.4-4,14.1-5.9c1.1-0.5,1.6-1.1,1.6-2.4c-0.1-3.2,0-6.4,0-9.6c0-4.6-3.8-7.2-8.1-5.7   c-3,1.1-6,2.2-8.9,3.2c-2,0.7-3.1,0.3-3.8-1.7c-0.8-2.1-1.5-4.1-2.3-6.2c-0.7-1.9-0.2-3,1.6-3.7c4.1-1.6,8.1-3.4,12.3-4.6   c9.5-2.6,18.9,2.9,21.3,12.1c0.4,1.5,0.6,3,0.6,4.6C175.2,212.1,175.2,221.5,175.2,230.9"></path>
	<path style="clip-path:url(#SVGID_00000127039749922485778230000017111238125603947683_);fill:#1D1D1B;" d="M289.2,243.9   c0,10.2,0,20.4,0,30.7c0,11.7-9.7,21.1-21.2,20.7c-11.3-0.4-19.9-9.3-20-20.9c-0.1-17.7,0-35.4,0-53.2c0-1.9,0.6-2.7,2.4-3.4   c2.1-0.8,4.2-1.5,6.3-2.3c2.7-1,4-0.1,4,2.7c0,18.7,0,37.5,0,56.2c0,3.3,1.5,5.7,4.4,7.2c2.9,1.4,5.8,1.1,8.4-0.8   c2.1-1.6,3-3.8,3-6.4c0-19.3,0-38.7,0-58.1c0-3.2,0.2-3.5,3.2-4.6c2-0.7,4-1.5,6-2.2c2.1-0.8,3.5,0.2,3.5,2.5   C289.2,222.6,289.2,233.3,289.2,243.9"></path>
	<path style="clip-path:url(#SVGID_00000127039749922485778230000017111238125603947683_);fill:#1D1D1B;" d="M219.4,220.7   c0-13.3,0-26.7,0-40c0-3.6,1.7-6.1,5.1-7.3c6-2.2,12.1-4.4,18.1-6.6c2.3-0.8,3.3-0.4,4.1,1.9c0.8,2.2,1.6,4.3,2.3,6.5   c0.6,1.7,0.1,2.8-1.6,3.4c-4.3,1.6-8.5,3.1-12.8,4.7c-2,0.7-2.5,1.4-2.5,3.6c0,23.5,0,47,0,70.6c0,2.6-0.4,3.1-2.8,4   c-2.1,0.8-4.1,1.5-6.2,2.3c-2.3,0.8-3.7-0.1-3.7-2.6C219.4,247.7,219.4,234.2,219.4,220.7"></path>
	<path style="clip-path:url(#SVGID_00000127039749922485778230000017111238125603947683_);fill:#1D1D1B;" d="M191,225.3   c0-13.8,0-27.6,0-41.4c0-2.3,0.4-2.9,2.6-3.7c2-0.7,4.1-1.4,6.1-2.3c2.4-1.1,4.1,0.4,4,2.8c-0.1,25.7,0,51.5,0,77.2   c0,2,0,4.1,0,6.1c0,1.6-0.6,2.5-2.1,3c-2.3,0.9-4.7,1.7-7,2.6c-2.2,0.8-3.5-0.2-3.5-2.5C191,253.2,191,239.2,191,225.3"></path>
</g>
</svg>